<svg width="8" height="10" viewBox="0 0 8 10" fill="none" xmlns="http://www.w3.org/2000/svg">
<path d="M2.5 5.92857C2.78416 5.92857 3.05668 5.81569 3.25761 5.61476C3.45855 5.41383 3.57143 5.1413 3.57143 4.85714C3.57143 4.26571 3.35714 4 3.14286 3.57143C2.68343 2.653 3.04686 1.834 4 1C4.21429 2.07143 4.85714 3.1 5.71429 3.78571C6.57143 4.47143 7 5.28571 7 6.14286C7 6.53682 6.9224 6.92693 6.77164 7.29091C6.62087 7.65488 6.3999 7.9856 6.12132 8.26418C5.84274 8.54275 5.51203 8.76373 5.14805 8.9145C4.78407 9.06526 4.39397 9.14286 4 9.14286C3.60603 9.14286 3.21593 9.06526 2.85195 8.9145C2.48797 8.76373 2.15726 8.54275 1.87868 8.26418C1.6001 7.9856 1.37913 7.65488 1.22836 7.29091C1.0776 6.92693 1 6.53682 1 6.14286C1 5.64871 1.18557 5.15971 1.42857 4.85714C1.42857 5.1413 1.54145 5.41383 1.74239 5.61476C1.94332 5.81569 2.21584 5.92857 2.5 5.92857Z" fill="#CC1B1B" stroke="#CC1B1B" stroke-linecap="round" stroke-linejoin="round"/>
</svg>
