<svg width="18" height="18" viewBox="0 0 18 18" fill="none" xmlns="http://www.w3.org/2000/svg">
<path d="M5.44444 1H5.26667C3.77319 1 3.02645 1 2.45603 1.29065C1.95426 1.54631 1.54631 1.95426 1.29065 2.45603C1 3.02645 1 3.77319 1 5.26667V5.44444M5.44444 17H5.26667C3.77319 17 3.02645 17 2.45603 16.7093C1.95426 16.4537 1.54631 16.0458 1.29065 15.544C1 14.9735 1 14.2268 1 12.7333V12.5556M17 5.44444V5.26667C17 3.77319 17 3.02645 16.7093 2.45603C16.4537 1.95426 16.0458 1.54631 15.544 1.29065C14.9735 1 14.2268 1 12.7333 1H12.5556M17 12.5556V12.7333C17 14.2268 17 14.9735 16.7093 15.544C16.4537 16.0458 16.0458 16.4537 15.544 16.7093C14.9735 17 14.2268 17 12.7333 17H12.5556" stroke="#0F0F0F" stroke-width="2" stroke-linecap="round" stroke-linejoin="round"/>
</svg>
