<svg width="18" height="18" viewBox="0 0 18 18" fill="none" xmlns="http://www.w3.org/2000/svg">
<path d="M1 5.44444H1.17778C2.67125 5.44444 3.41798 5.44444 3.98841 5.1538C4.49018 4.89813 4.89813 4.49019 5.15379 3.98842C5.44444 3.41799 5.44444 2.67125 5.44444 1.17778V1M1 12.5556H1.17778C2.67125 12.5556 3.41798 12.5556 3.98841 12.8462C4.49018 13.1019 4.89813 13.5098 5.15379 14.0116C5.44444 14.582 5.44444 15.3287 5.44444 16.8222V17M12.5556 1V1.17778C12.5556 2.67125 12.5556 3.41799 12.8462 3.98842C13.1019 4.49019 13.5098 4.89813 14.0116 5.1538C14.582 5.44444 15.3287 5.44444 16.8222 5.44444H17M12.5556 17V16.8222C12.5556 15.3287 12.5556 14.582 12.8462 14.0116C13.1019 13.5098 13.5098 13.1019 14.0116 12.8462C14.582 12.5556 15.3287 12.5556 16.8222 12.5556H17" stroke="#0F0F0F" stroke-width="2" stroke-linecap="round" stroke-linejoin="round"/>
</svg>
