<svg width="20" height="20" viewBox="0 0 20 20" fill="none" xmlns="http://www.w3.org/2000/svg">
<path opacity="0.6" d="M7.28019 16.8064H4.45955C3.7718 16.8064 3.18993 16.5713 2.71396 16.1011C2.23799 15.6308 2 15.056 2 14.3766V3.42979C2 2.75036 2.23799 2.17553 2.71396 1.70532C3.18993 1.23511 3.7718 1 4.45955 1H15.5404C16.2282 1 16.8101 1.23511 17.286 1.70532C17.762 2.17553 18 2.75036 18 3.42979V14.3766C18 15.056 17.762 15.6308 17.286 16.1011C16.8101 16.5713 16.2282 16.8064 15.5404 16.8064H12.7198L10.8646 18.6281C10.6211 18.876 10.3329 19 10 19C9.66713 19 9.37893 18.876 9.13541 18.6281L7.28019 16.8064ZM9.97659 13.9554C10.3211 13.9554 10.6167 13.8336 10.8634 13.59C11.11 13.3463 11.2333 13.0543 11.2333 12.714C11.2333 12.3735 11.11 12.0814 10.8634 11.8377C10.6167 11.5941 10.3211 11.4723 9.97659 11.4723C9.63198 11.4723 9.33632 11.5941 9.0896 11.8377C8.84301 12.0814 8.71971 12.3735 8.71971 12.714C8.71971 13.0543 8.84301 13.3463 9.0896 13.59C9.33632 13.8336 9.63198 13.9554 9.97659 13.9554ZM11.0706 6.56865C11.0706 6.76338 10.9983 6.96416 10.8536 7.17101C10.709 7.37773 10.5303 7.57502 10.3175 7.76289C9.9974 8.04708 9.75735 8.28284 9.59731 8.47019C9.43727 8.65741 9.30764 8.85556 9.20842 9.06465C9.17601 9.16267 9.14501 9.26438 9.1154 9.36978C9.08593 9.47518 9.06452 9.59658 9.05119 9.734C9.01691 10.0032 9.0936 10.2356 9.28124 10.4312C9.46875 10.6269 9.7034 10.7247 9.9852 10.7247C10.2311 10.7247 10.4487 10.6485 10.6379 10.4962C10.8273 10.3438 10.9661 10.1143 11.0542 9.80771C11.1163 9.61536 11.2245 9.41549 11.3791 9.20812C11.5335 9.00088 11.7445 8.76808 12.0119 8.50972C12.3725 8.17968 12.6447 7.84504 12.8284 7.50579C13.0122 7.16653 13.1041 6.77451 13.1041 6.32973C13.1041 5.56387 12.8268 4.95927 12.2723 4.51593C11.7177 4.07259 11.0094 3.85092 10.1474 3.85092C9.51102 3.85092 8.9571 3.98393 8.48566 4.24993C8.01435 4.51606 7.6282 4.88825 7.3272 5.3665C7.18637 5.59799 7.16823 5.83461 7.27279 6.07637C7.37748 6.318 7.55738 6.49151 7.81251 6.59691C8.02936 6.68347 8.25727 6.68347 8.49626 6.59691C8.73512 6.51048 8.94496 6.36187 9.1258 6.15107C9.24996 6.0022 9.3918 5.89192 9.5513 5.82025C9.71067 5.74871 9.88864 5.71294 10.0852 5.71294C10.3734 5.71294 10.6097 5.79726 10.7942 5.9659C10.9785 6.13454 11.0706 6.33546 11.0706 6.56865Z" fill="#004327"/>
</svg>
