<svg width="16" height="19" viewBox="0 0 16 19" fill="none" xmlns="http://www.w3.org/2000/svg">
<path d="M5.28019 16H2.45955C1.7718 16 1.18993 15.762 0.713961 15.286C0.237987 14.8101 0 14.2282 0 13.5404V2.45955C0 1.7718 0.237987 1.18993 0.713961 0.713961C1.18993 0.237987 1.7718 0 2.45955 0H13.5404C14.2282 0 14.8101 0.237987 15.286 0.713961C15.762 1.18993 16 1.7718 16 2.45955V13.5404C16 14.2282 15.762 14.8101 15.286 15.286C14.8101 15.762 14.2282 16 13.5404 16H10.7198L8.86459 17.844C8.62107 18.095 8.33288 18.2205 8 18.2205C7.66713 18.2205 7.37893 18.095 7.13541 17.844L5.28019 16ZM7.97659 13.1142C8.32107 13.1142 8.61667 12.9909 8.86339 12.7443C9.10998 12.4975 9.23328 12.2019 9.23328 11.8575C9.23328 11.5129 9.10998 11.2172 8.86339 10.9705C8.61667 10.7239 8.32107 10.6006 7.97659 10.6006C7.63198 10.6006 7.33632 10.7239 7.0896 10.9705C6.84301 11.2172 6.71971 11.5129 6.71971 11.8575C6.71971 12.2019 6.84301 12.4975 7.0896 12.7443C7.33632 12.9909 7.63198 13.1142 7.97659 13.1142ZM9.07064 5.63687C9.07064 5.83398 8.99829 6.03722 8.85359 6.24661C8.70903 6.45585 8.53032 6.65556 8.31747 6.84574C7.9974 7.13341 7.75735 7.37206 7.59731 7.5617C7.43727 7.75121 7.30764 7.95179 7.20842 8.16344C7.17601 8.26266 7.14501 8.36562 7.1154 8.47231C7.08593 8.579 7.06452 8.70189 7.05119 8.84099C7.01691 9.11345 7.0936 9.3487 7.28124 9.54675C7.46875 9.74479 7.7034 9.84382 7.9852 9.84382C8.23112 9.84382 8.4487 9.76673 8.63794 9.61256C8.82732 9.45826 8.96608 9.22594 9.05424 8.91561C9.11625 8.7209 9.22454 8.51858 9.37911 8.30867C9.53355 8.09889 9.74446 7.86324 10.0119 7.60171C10.3725 7.26764 10.6447 6.92889 10.8284 6.58548C11.0122 6.24207 11.1041 5.84525 11.1041 5.39501C11.1041 4.61977 10.8268 4.00777 10.2723 3.559C9.71765 3.11023 9.00936 2.88585 8.14743 2.88585C7.51102 2.88585 6.9571 3.02048 6.48566 3.28974C6.01435 3.55913 5.6282 3.93588 5.3272 4.41999C5.18637 4.65431 5.16823 4.89384 5.27279 5.13856C5.37748 5.38314 5.55738 5.55878 5.81251 5.66547C6.02936 5.75309 6.25727 5.75309 6.49626 5.66547C6.73512 5.57799 6.94496 5.42755 7.1258 5.21417C7.24996 5.06347 7.3918 4.95185 7.5513 4.8793C7.71067 4.80688 7.88864 4.77067 8.08522 4.77067C8.37342 4.77067 8.60974 4.85603 8.79418 5.02673C8.97849 5.19744 9.07064 5.40082 9.07064 5.63687Z" fill="white"/>
</svg>
